mtllib ./directionallight.mtl
o Cube
v 0.08693647 -0.9164171 -3.348413
v 1.086936 -0.9164171 -3.348413
v 0.08693659 0.08358288 -3.348413
v 1.086936 0.08358288 -3.348413
v 0.08693671 0.08358312 -4.348413
v 1.086936 0.08358288 -4.348413
v 0.08693659 -0.9164169 -4.348413
v 1.086936 -0.9164171 -4.348413
v 0.08693659 0.08358288 -3.348413
v 1.086936 0.08358288 -3.348413
v 0.08693671 0.08358312 -4.348413
v 1.086936 0.08358288 -4.348413
v 0.08693659 -0.9164169 -4.348413
v 0.08693647 -0.9164171 -3.348413
v 1.086936 -0.9164171 -3.348413
v 1.086936 -0.9164171 -4.348413
v 1.086936 -0.9164171 -3.348413
v 1.086936 0.08358288 -3.348413
v 1.086936 0.08358288 -4.348413
v 1.086936 -0.9164171 -4.348413
v 0.08693659 -0.9164169 -4.348413
v 0.08693671 0.08358312 -4.348413
v 0.08693659 0.08358288 -3.348413
v 0.08693647 -0.9164171 -3.348413

vn 0 0 1
vn 0 0 1
vn 0 0 1
vn 0 0 1
vn 1.490116E-08 1 0
vn 1.490116E-08 1 0
vn 0 0 -1
vn 0 0 -1
vn 1.490116E-08 1 0
vn 1.490116E-08 1 0
vn 0 0 -1
vn 0 0 -1
vn -1.490116E-08 -1 0
vn -1.490116E-08 -1 0
vn -1.490116E-08 -1 0
vn -1.490116E-08 -1 0
vn 1 0 0
vn 1 0 0
vn 1 0 0
vn 1 0 0
vn -1 0 0
vn -1 0 0
vn -1 0 0
vn -1 0 0

vt 0 0
vt 1 0
vt 0 1
vt 1 1
vt 0 1
vt 1 1
vt 0 1
vt 1 1
vt 0 0
vt 1 0
vt 0 0
vt 1 0
vt 0 0
vt 0 1
vt 1 1
vt 1 0
vt 0 0
vt 0 1
vt 1 1
vt 1 0
vt 0 0
vt 0 1
vt 1 1
vt 1 0

usemtl Default-Material
f 3/3/3 1/1/1 4/4/4
f 4/4/4 1/1/1 2/2/2
f 5/5/5 9/9/9 6/6/6
f 6/6/6 9/9/9 10/10/10
f 7/7/7 11/11/11 8/8/8
f 8/8/8 11/11/11 12/12/12
f 14/14/14 13/13/13 15/15/15
f 15/15/15 13/13/13 16/16/16
f 18/18/18 17/17/17 19/19/19
f 19/19/19 17/17/17 20/20/20
f 22/22/22 21/21/21 23/23/23
f 23/23/23 21/21/21 24/24/24
